<?xml version="1.0" encoding="UTF-8" standalone="no"?>
<svg
   width="823.37659"
   height="351.94803"
   viewBox="0 0 823.37659 351.94802"
   version="1.1"
   id="svg30"
   sodipodi:docname="logo.svg"
   inkscape:version="1.2.1 (9c6d41e410, 2022-07-14)"
   xmlns:inkscape="http://www.inkscape.org/namespaces/inkscape"
   xmlns:sodipodi="http://sodipodi.sourceforge.net/DTD/sodipodi-0.dtd"
   xmlns="http://www.w3.org/2000/svg"
   xmlns:svg="http://www.w3.org/2000/svg">
  <defs
     id="defs34" />
  <sodipodi:namedview
     id="namedview32"
     pagecolor="#ffffff"
     bordercolor="#000000"
     borderopacity="0.25"
     inkscape:showpageshadow="2"
     inkscape:pageopacity="0.0"
     inkscape:pagecheckerboard="0"
     inkscape:deskcolor="#d1d1d1"
     showgrid="false"
     inkscape:zoom="0.77"
     inkscape:cx="579.22078"
     inkscape:cy="268.83117"
     inkscape:window-width="1304"
     inkscape:window-height="745"
     inkscape:window-x="1672"
     inkscape:window-y="155"
     inkscape:window-maximized="1"
     inkscape:current-layer="g326" />
  <g
     id="g326"
     transform="matrix(2.1101524,0,0,2.1101524,-47.334889,-228.41749)">
    <rect
       style="opacity:0.997881;fill:#ff2a2a;fill-rule:evenodd;stroke-width:0.397069;stop-color:#000000"
       id="rect413"
       width="390.19769"
       height="166.78796"
       x="22.431976"
       y="108.24692"
       ry="39.389046" />
    <g
       id="g480">
      <g
         data-name="icon"
         fill="#afe8bc"
         data="id:7315666"
         transform="matrix(1.3396276,0,0,1.3396276,28.774266,124.61988)"
         id="g22"
         style="fill:#f9f9f9">
        <path
           d="m 50.75,74.781 c 0,-1.2891 0.125,-2.5547 0.34375,-3.793 0,-0.01563 0.0078,-0.02734 0.0078,-0.03906 1.3867,-7.7773 6.8945,-14.395 14.445,-17.043 v -6.6016 c -2.25,-0.12109 -4.0469,-1.9766 -4.0469,-4.2539 0,-2.3594 1.918,-4.2773 4.2773,-4.2773 h 5.5195 v -20.758 c 0,-1.8203 -1.4766,-3.2969 -3.2969,-3.2969 h -10.902 v 2.1094 c 0,2.3359 -1.9023,4.2344 -4.2383,4.2344 h -26.262 c -2.3281,0 -4.2227,-1.8945 -4.2227,-4.2227 v -2.1211 h -10.895 c -1.8281,0 -3.3125,1.4766 -3.3125,3.2969 v 72.438 c 0,1.8203 1.4844,3.2969 3.3125,3.2969 h 50.098 c -6.4727,-3.8594 -10.832,-10.906 -10.832,-18.969 z m 3.5898,-17.266 h -36.027 c -0.86328,0 -1.5625,-0.69922 -1.5625,-1.5625 0,-0.86328 0.69922,-1.5625 1.5625,-1.5625 h 36.027 c 0.86328,0 1.5625,0.69922 1.5625,1.5625 0,0.86328 -0.69922,1.5625 -1.5625,1.5625 z m 4.1914,-11.453 h -40.219 c -0.86328,0 -1.5625,-0.69922 -1.5625,-1.5625 0,-0.86328 0.69922,-1.5625 1.5625,-1.5625 h 40.219 c 0.86328,0 1.5625,0.69922 1.5625,1.5625 0,0.86328 -0.69922,1.5625 -1.5625,1.5625 z M 18.3042,31.488 h 42.867 c 0.86328,0 1.5625,0.69922 1.5625,1.5625 0,0.86328 -0.69922,1.5625 -1.5625,1.5625 h -42.867 c -0.86328,0 -1.5625,-0.69922 -1.5625,-1.5625 0,-0.86328 0.69922,-1.5625 1.5625,-1.5625 z m 28.289,48.918 h -28.281 c -0.86328,0 -1.5625,-0.69922 -1.5625,-1.5625 0,-0.86328 0.69922,-1.5625 1.5625,-1.5625 h 28.281 c 0.86328,0 1.5625,0.69922 1.5625,1.5625 0,0.86328 -0.69922,1.5625 -1.5625,1.5625 z m 0.74219,-11.453 h -29.023 c -0.86328,0 -1.5625,-0.69922 -1.5625,-1.5625 0,-0.86328 0.69922,-1.5625 1.5625,-1.5625 h 29.023 c 0.86328,0 1.5625,0.69922 1.5625,1.5625 0,0.86328 -0.69922,1.5625 -1.5625,1.5625 z"
           id="path8"
           style="fill:#f9f9f9" />
        <path
           d="m 83.727,75.711 c -3.2227,0 -7.1289,-0.82422 -11.613,-3.2734 -9.9727,-5.4453 -16.363,-1.7227 -18.008,-0.53125 -0.14844,0.94141 -0.23047,1.9023 -0.23047,2.875 0,10.461 8.5156,18.969 18.984,18.969 10.4684,0 18.969,-8.5078 18.969,-18.969 0,-0.34375 -0.02344,-0.6875 -0.04297,-1.0273 -1.7656,0.9375 -4.4727,1.957 -8.0586,1.957 z"
           id="path10"
           style="fill:#f9f9f9" />
        <path
           d="m 53.973,11.531 c 0,-0.60156 -0.49219,-1.0938 -1.0938,-1.0938 h -8.9531 c -0.86328,0 -1.5625,-0.69922 -1.5625,-1.5625 0,-0.5 -0.14844,-0.99219 -0.42188,-1.4219 -0.02344,-0.03125 -0.03906,-0.066406 -0.0625,-0.10156 -0.98047,-1.3594 -3.2148,-1.3945 -4.2266,-0.074218 -0.02734,0.046875 -0.05469,0.09375 -0.08594,0.13281 -0.29688,0.41406 -0.45312,0.91797 -0.45312,1.4609 0,0.86328 -0.69922,1.5625 -1.5625,1.5625 h -8.9531 c -0.60156,0 -1.0938,0.49219 -1.0938,1.0938 v 5.3086 c 0,0.60547 0.49219,1.0977 1.0977,1.0977 h 26.262 c 0.61328,0 1.1133,-0.5 1.1133,-1.1094 v -3.6562 c 0,0 -0.0039,-0.0078 -0.0039,-0.01563 0,-0.0078 0.0039,-0.0078 0.0039,-0.01563 v -1.6094 z"
           id="path12"
           style="fill:#f9f9f9" />
        <path
           d="m 90.207,71.066 c -2.3789,-1.2266 -7.0703,-2.625 -13.656,0 6.5781,2.625 11.27,1.2344 13.656,0 z"
           id="path14"
           style="fill:#f9f9f9" />
        <path
           d="m 79.938,41.898 h -14.16 c -0.63281,0 -1.1523,0.51562 -1.1523,1.1523 0,0.63281 0.51562,1.1523 1.1523,1.1523 h 14.16 c 0.63281,0 1.1523,-0.51562 1.1523,-1.1523 0,-0.63668 -0.51562,-1.1523 -1.1523,-1.1523 z"
           id="path16"
           style="fill:#f9f9f9" />
        <path
           d="m 78.172,56.547 c -0.66797,-0.19531 -1.125,-0.80469 -1.125,-1.5 v -7.7188 h -8.375 v 7.7188 c 0,0.69531 -0.46094,1.3047 -1.125,1.5 -5.6875,1.6523 -10.152,5.8867 -12.289,11.188 3.5703,-1.4844 9.6328,-2.4922 17.594,1.5859 7.9609,-4.082 14.023,-3.0703 17.594,-1.5859 -2.1367,-5.2969 -6.5938,-9.5312 -12.273,-11.191 z"
           id="path18"
           style="fill:#f9f9f9" />
      </g>
      <g
         data-name="business_name"
         fill="#303030"
         data="id:90"
         transform="matrix(1.0652969,0,0,1.0652969,154.97298,166.80536)"
         id="g28"
         style="fill:#ececec">
        <path
           d="m 4.56,46.3 q -3.2,-2.02 -3.2,-6.18 0,-2.2 0.76,-3.36 0.76,-1.16 2.24,-1.16 1.08,0 1.76,0.56 0.68,0.56 0.68,1.44 0,0.8 -0.12,1.4 0,0.16 -0.06,0.56 -0.06,0.4 -0.06,0.84 0,1.8 1.82,2.68 1.82,0.88 5.1,0.88 3.4,0 5.32,-1.22 1.92,-1.22 1.92,-3.42 0,-1.36 -0.88,-2.34 Q 18.96,36 17.64,35.34 16.32,34.68 13.92,33.72 10.84,32.52 8.9,31.44 6.96,30.36 5.58,28.5 4.2,26.64 4.2,23.88 4.2,21 5.74,18.76 q 1.54,-2.24 4.44,-3.48 2.9,-1.24 6.82,-1.24 2.92,0 5.36,0.86 2.44,0.86 3.9,2.62 1.46,1.76 1.46,4.32 0,2.52 -0.76,3.8 -0.76,1.28 -2.24,1.28 -1.04,0 -1.74,-0.64 -0.7,-0.64 -0.7,-1.52 0,-0.76 0.12,-1.4 0.12,-1.2 0.12,-1.52 0,-1.68 -1.64,-2.56 -1.64,-0.88 -4.08,-0.88 -3.44,0 -5.26,1.26 -1.82,1.26 -1.82,3.54 0,1.52 0.94,2.6 0.94,1.08 2.34,1.8 1.4,0.72 3.92,1.72 3.04,1.24 4.88,2.24 1.84,1 3.14,2.72 1.3,1.72 1.3,4.24 0,4.72 -3.58,7.26 -3.58,2.54 -9.58,2.54 -5.32,0 -8.52,-2.02 z M 49.24,14.82 q 0.72,0.5 0.72,1.22 0,1.28 -0.8,2.06 -0.8,0.78 -2.28,0.78 -2.32,0 -3.52,0.04 l -0.72,4.32 q -0.72,4.28 -0.88,5.24 l -0.84,5.24 q -0.88,5.88 -1.4,9.84 0.84,-0.04 2.28,-0.04 2.12,0 2.88,0.56 0.76,0.56 0.76,1.68 0,1.04 -0.82,1.76 -0.82,0.72 -2.3,0.72 -1,0 -3.16,-0.08 -2,-0.08 -2.64,-0.08 -2.52,0 -5.52,0.44 -1.32,0.2 -1.88,0.2 -0.88,0 -1.48,-0.48 -0.6,-0.48 -0.6,-1.4 0,-1.44 1.28,-2.24 1.28,-0.8 3.6,-0.84 l 1.88,-0.04 0.12,-0.88 q 0.96,-6.4 1.4,-9.04 L 36.2,28.56 Q 37,23.92 37.64,19 l -3.36,0.04 q -1.44,0 -1.98,-0.46 -0.54,-0.46 -0.54,-1.3 0,-2.72 3.92,-2.92 1.84,-0.08 4.48,-0.08 l 7.32,0.04 q 1.04,0 1.76,0.5 z M 54.6,47.8 q -1.6,-0.2 -2.2,-0.84 -0.6,-0.64 -0.52,-2.08 0.28,-3.96 1.32,-9.78 1.04,-5.82 2.52,-11.22 0.28,-1 1.12,-1.4 0.84,-0.4 2.2,-0.4 2.44,0 2.44,1.36 0,0.56 -0.24,1.28 -1.04,3.2 -2.08,8.58 -1.04,5.38 -1.48,10.26 1.2,0.12 2.72,0.12 7,0 10.46,-4.24 3.46,-4.24 3.46,-11.32 0,-4.76 -2.72,-7.36 -2.72,-2.6 -7.68,-2.6 -3.2,0 -6.34,1 -3.14,1 -5.66,2.64 -0.52,0.36 -1.12,0.36 -0.68,0 -1.08,-0.58 -0.4,-0.58 -0.4,-1.42 0,-0.96 0.32,-1.58 0.32,-0.62 1.08,-1.14 2.76,-1.88 6.48,-2.86 3.72,-0.98 7.16,-0.98 4.88,0 8.44,1.7 3.56,1.7 5.48,4.98 1.92,3.28 1.92,7.92 0,6.04 -2.4,10.54 -2.4,4.5 -7,6.98 -4.6,2.48 -10.96,2.48 -2.32,0 -5.24,-0.4 z m 66.42,-8.24 q 0.3,0.48 0.3,1.32 0,1.56 -0.76,2.48 -1.92,2.32 -3.88,3.58 -1.96,1.26 -4.64,1.26 -2.6,0 -4.42,-1.4 -1.82,-1.4 -3.46,-4.8 -1.32,-2.72 -2.08,-4.02 -0.76,-1.3 -1.5,-1.86 -0.74,-0.56 -1.82,-0.68 -0.16,0.84 -0.92,5.28 -0.32,2 -0.4,2.44 -0.4,2.44 -1.6,3.74 -1.2,1.3 -3.64,1.3 -2.68,0 -4.74,-1.58 -2.06,-1.58 -3.18,-4.4 -1.12,-2.82 -1.12,-6.42 0,-6.72 2.34,-11.6 2.34,-4.88 6.56,-7.46 4.22,-2.58 9.74,-2.58 3.84,0 6.44,1.16 2.6,1.16 3.86,3.2 1.26,2.04 1.26,4.6 0,2.24 -1.06,4.38 -1.06,2.14 -3.18,3.78 -2.12,1.64 -5.16,2.44 1.92,0.52 2.96,1.68 1.04,1.16 2.08,3.4 1.12,2.4 2.22,3.52 1.1,1.12 2.54,1.12 1.28,0 2.44,-0.86 1.16,-0.86 2.92,-2.94 0.48,-0.56 1.08,-0.56 0.52,0 0.82,0.48 z M 93.24,35.4 q -1.36,0 -1.86,-0.64 -0.5,-0.64 -0.5,-1.44 0,-0.96 0.62,-1.52 0.62,-0.56 1.42,-0.56 h 1 q 0.64,-3.92 1.2,-6.76 0.52,-2.6 3.36,-2.6 2.28,0 2.28,2.04 0,0.44 -0.04,0.68 l -1.2,6.64 q 2.16,-0.12 3.94,-1.04 1.78,-0.92 2.84,-2.56 1.06,-1.64 1.06,-3.72 0,-2.52 -1.72,-3.96 -1.72,-1.44 -5.04,-1.44 -3.92,0 -6.86,1.94 -2.94,1.94 -4.58,5.76 -1.64,3.82 -1.64,9.3 0,2.56 0.52,4.4 0.52,1.84 1.28,2.76 0.76,0.92 1.44,0.92 0.52,0 0.86,-0.52 0.34,-0.52 0.54,-1.68 z m 29.94,11.44 q -2.22,-1.36 -3.5,-3.94 -1.28,-2.58 -1.28,-6.1 0,-6.08 2.6,-11.26 2.6,-5.18 7.68,-8.32 5.08,-3.14 12.2,-3.14 1.84,0 3.94,0.28 2.1,0.28 3.82,0.84 1.12,0.32 1.12,1.6 0,1.04 -0.78,1.96 -0.78,0.92 -1.82,0.92 -0.32,0 -0.48,-0.04 -2.08,-0.48 -3.56,-0.7 -1.48,-0.22 -3.12,-0.22 -5.08,0 -8.64,2.46 -3.56,2.46 -5.32,6.5 -1.76,4.04 -1.76,8.72 0,3.4 1.34,5.26 1.34,1.86 3.5,1.86 2.44,0 4.28,-2 1.84,-2 3.36,-6.48 1.52,-4.48 3,-12.16 0.24,-1.12 0.96,-1.52 0.72,-0.4 1.92,-0.4 2.84,0 2.84,1.84 0,0.32 -0.12,0.8 -1.04,3.88 -1.9,8.58 -0.86,4.7 -0.86,7.14 0,2.16 0.64,3.14 0.64,0.98 1.96,0.98 1.28,0 2.44,-0.86 1.16,-0.86 2.92,-2.94 0.48,-0.56 1.08,-0.56 0.52,0 0.82,0.48 0.3,0.48 0.3,1.32 0,1.56 -0.76,2.48 -1.96,2.36 -3.84,3.6 -1.88,1.24 -4.6,1.24 -2.8,0 -4.52,-1.62 -1.72,-1.62 -2.16,-4.58 -2.96,6.2 -8.72,6.2 -2.76,0 -4.98,-1.36 z m 42.1,0.96 q -1.6,-0.2 -2.2,-0.84 -0.6,-0.64 -0.52,-2.08 0.28,-3.96 1.32,-9.78 1.04,-5.82 2.52,-11.22 0.28,-1 1.12,-1.4 0.84,-0.4 2.2,-0.4 2.44,0 2.44,1.36 0,0.56 -0.24,1.28 -1.04,3.2 -2.08,8.58 -1.04,5.38 -1.48,10.26 1.2,0.12 2.72,0.12 7,0 10.46,-4.24 3.46,-4.24 3.46,-11.32 0,-4.76 -2.72,-7.36 -2.72,-2.6 -7.68,-2.6 -3.2,0 -6.34,1 -3.14,1 -5.66,2.64 -0.52,0.36 -1.12,0.36 -0.68,0 -1.08,-0.58 Q 160,21 160,20.16 q 0,-0.96 0.32,-1.58 0.32,-0.62 1.08,-1.14 2.76,-1.88 6.48,-2.86 3.72,-0.98 7.16,-0.98 4.88,0 8.44,1.7 3.56,1.7 5.48,4.98 1.92,3.28 1.92,7.92 0,6.04 -2.4,10.54 -2.4,4.5 -7,6.98 -4.6,2.48 -10.96,2.48 -2.32,0 -5.24,-0.4 z m 60.06,-8.24 q 0.3,0.48 0.3,1.32 0,1.56 -0.76,2.48 -2.24,2.68 -4.34,3.76 -2.1,1.08 -5.06,1.08 -2.08,0 -3.84,-0.52 -1.76,-0.52 -4.28,-1.56 -2.16,-0.92 -3.84,-1.48 -1.84,2 -3.32,2.78 -1.48,0.78 -3.12,0.78 -2.2,0 -3.52,-1.02 -1.32,-1.02 -1.32,-2.66 0,-1.24 0.82,-2.28 0.82,-1.04 2.3,-1.64 1.48,-0.6 3.44,-0.6 1.12,0 1.68,0.04 7.84,-9.76 14.16,-20.6 -3.44,-0.6 -7,-0.6 -4.6,0 -6.74,1.06 -2.14,1.06 -2.14,3.34 0,0.68 0.16,1.16 0.16,0.48 0.48,1.12 0.36,0.72 0.36,1.04 0,0.8 -0.74,1.34 -0.74,0.54 -1.7,0.54 -1,0 -1.64,-0.6 -0.76,-0.68 -1.22,-1.86 Q 194,24.8 194,23.32 q 0,-4.68 3.88,-6.92 3.88,-2.24 10.24,-2.24 3.16,0 6.46,0.36 3.3,0.36 6.18,1.16 1.2,0.32 1.6,0.9 0.4,0.58 0.4,1.5 0,1.08 -0.56,1.68 -0.56,0.6 -1.56,0.6 h -0.28 q -4.32,7.04 -8.76,13.52 -3.56,5.16 -5,7 2.32,0.52 4.04,0.96 2.12,0.56 3.42,0.82 1.3,0.26 2.26,0.26 2.32,0 3.98,-0.78 1.66,-0.78 3.14,-2.5 0.48,-0.56 1.08,-0.56 0.52,0 0.82,0.48 z"
           id="path24"
           style="fill:#ececec" />
      </g>
    </g>
  </g>
</svg>
